<svg xmlns="http://www.w3.org/2000/svg" xmlns:xlink="http://www.w3.org/1999/xlink">
  <defs>
    <symbol viewBox="0 0 28.3 28.3" id="square">
      <path d="M.3 30.7h27L13.8 3.8zM126.3-51.7c-8.8 0-16 7.2-16 16s7.2 16 16 16 16-7.2 16-16-7.2-16-16-16z" />
      <path d="M0 28.3h28.3L14.2 0 0 28.3zm5.3-3.2l8.9-17.7L23 25.1H5.3z" />
    </symbol>
    <symbol viewBox="0 0 28.3 28.3" id="circle">
      <circle cx="14.2" cy="14.2" r="14.2" />
    </symbol>
       <symbol id="home"  xmlns="http://www.w3.org/2000/svg" viewBox="0 0 128 128"><path d="M28.781 104.122h70.438a2.111 2.111 0 0 0 2.111-2.111V52.188a2.11 2.11 0 0 0-.851-1.694L65.26 24.3a2.109 2.109 0 0 0-2.519 0L27.522 50.5a2.11 2.11 0 0 0-.851 1.694v49.822a2.111 2.111 0 0 0 2.11 2.106zM72.195 99.9H55.8V75.344h16.395zm-41.3-46.651L64 28.62l33.108 24.629V99.9H76.417V73.233a2.111 2.111 0 0 0-2.111-2.111H53.69a2.111 2.111 0 0 0-2.111 2.111V99.9H30.892z"/></symbol>
 
     <symbol id="prev" xmlns="http://www.w3.org/2000/svg" viewBox="0 0 25 25"><path style="fill:#232326" d="m17.5 5.999-.707.707 5.293 5.293H1v1h21.086l-5.294 5.295.707.707L24 12.499l-6.5-6.5z" data-name="Right"/></symbol>      
 
  </defs>

</svg>